#!OML:ASF H:\Terrain\Walking\May29\JustinRory\Justin.ASF
:FULLY-SPECIFIED
:DEGREES
314
root 17.0348 9.75849 -6.64859 -119.634 -83.672 91.2324
lowerback 37.2662 5.21313 -10.4968
upperback 14.8884 1.31121 10.5801
thorax -2.9135 -1.26994 16.8687
lowerneck -16.449 6.33185 -14.8077
upperneck 20.2866 11.9983 1.79112
head 8.08474 4.63511 4.25456
rclavicle -1.43125e-014 3.49861e-014
rhumerus 11.3662 34.2923 -53.1368
rradius 82.5057
rwrist -5.87378
rhand -16.6425 21.806
rfingers 7.12502
rthumb 9.58031 -7.95617
lclavicle -1.43125e-014 3.49861e-014
lhumerus 7.4386 -11.5615 103.599
lradius 71.4018
lwrist -19.3491
lhand -3.58703 26.1291
lfingers 7.12502
lthumb 22.1505 54.8801
rfemur -62.0278 -15.0985 12.7554
rtibia 72.617
rfoot 20.1626 2.67201
rtoes 21.1417
lfemur -59.3682 6.2133 -15.4436
ltibia 71.9524
lfoot 20.3151 -2.07096
ltoes 14.2818
315
root 17.017 9.74497 -6.64465 -120.885 -83.3674 92.8291
lowerback 36.7892 5.87739 -10.2769
upperback 15.0988 2.30476 10.4137
thorax -2.8185 -0.741744 16.1404
lowerneck -16.4213 6.02215 -12.0368
upperneck 20.4804 11.1152 0.801304
head 8.42929 4.30072 3.46025
rclavicle -1.43125e-014 -6.04305e-014
rhumerus 9.24918 32.5475 -53.9819
rradius 81.6425
rwrist -4.87009
rhand -17.0205 23.5368
rfingers 7.12502
rthumb 9.21555 -6.24184
lclavicle -1.43125e-014 -6.04305e-014
lhumerus 4.31616 -19.4481 99.1118
lradius 74.562
lwrist -15.0272
lhand -7.6143 27.6488
lfingers 7.12502
lthumb 18.2799 56.8098
rfemur -62.5822 -14.844 12.6715
rtibia 72.7387
rfoot 20.1999 2.51884
rtoes 21.5619
lfemur -59.9732 6.66512 -15.711
ltibia 72.1501
lfoot 20.3781 -2.13534
ltoes 14.6697
316
root 17.0047 9.74303 -6.63775 -123.424 -83.4098 95.4764
lowerback 37.4919 5.02694 -10.3953
upperback 15.0181 1.01175 10.5078
thorax -2.74096 -1.46551 16.8371
lowerneck -17.5694 6.87564 -14.61
upperneck 21.2201 13.0166 1.53408
head 8.54849 5.01206 4.33184
rclavicle 7.95139e-014 -1.27222e-014
rhumerus 11.0021 35.9428 -52.6537
rradius 80.6996
rwrist -4.73984
rhand -17.6246 24.6287
rfingers 7.12502
rthumb 8.63258 -5.17483
lclavicle 7.95139e-014 -1.27222e-014
lhumerus 4.29519 -17.1787 98.6231
lradius 75.0794
lwrist -15.2278
lhand -8.77693 28.439
lfingers 7.12502
lthumb 17.1612 57.7011
rfemur -62.7509 -14.6121 12.8983
rtibia 72.8297
rfoot 20.1323 2.46704
rtoes 21.7478
lfemur -59.968 6.81636 -15.4267
ltibia 72.2488
lfoot 20.1522 -1.46506
ltoes 17.367
317
root 17.0067 9.76067 -6.6316 -124.016 -83.5313 96.2429
lowerback 37.2588 5.56983 -9.69342
upperback 15.1204 2.01386 10.5328
thorax -2.8607 -0.897631 16.0588
lowerneck -17.8154 6.72826 -12.4809
upperneck 22.5816 12.4166 1.34199
head 9.24893 4.76802 3.99016
rclavicle -1.59028e-015 -1.55847e-013
rhumerus 8.42292 34.2443 -54.0016
rradius 79.3142
rwrist -4.25872
rhand -18.3732 25.7952
rfingers 7.12502
rthumb 7.91013 -4.0368
lclavicle -1.59028e-015 -1.55847e-013
lhumerus 5.05735 -19.9811 98.7752
lradius 74.5853
lwrist -15.779
lhand -8.68687 28.8332
lfingers 7.12502
lthumb 17.2478 58.0878
rfemur -62.8122 -14.6656 13.1025
rtibia 72.7647
rfoot 20.0566 2.5693
rtoes 21.7327
lfemur -60.1849 6.74958 -15.3023
ltibia 72.2428
lfoot 20.2044 -1.87444
ltoes 14.3336
318
root 17.0014 9.76661 -6.63784 -122.218 -83.1762 94.7421
lowerback 37.3487 5.47696 -9.68968
upperback 14.9401 1.91461 10.2629
thorax -3.02817 -0.897468 15.7747
lowerneck -17.4351 7.00937 -12.0464
upperneck 22.871 12.6154 1.42574
head 9.28167 4.89255 3.96673
rclavicle 1.59028e-014 -2.22639e-014
rhumerus 7.5199 34.6931 -54.5944
rradius 77.7209
rwrist -4.07167
rhand -18.353 27.3348
rfingers 7.12502
rthumb 7.92968 -2.4965
lclavicle 1.59028e-014 -2.22639e-014
lhumerus 5.39949 -20.382 98.5893
lradius 74.1351
lwrist -16.2725
lhand -8.12616 29.1323
lfingers 7.12502
lthumb 17.7874 58.3388
rfemur -63.1218 -14.4727 12.6856
rtibia 72.7763
rfoot 19.9212 2.65365
rtoes 21.2539
lfemur -60.2636 6.54873 -15.5277
ltibia 72.1668
lfoot 20.1763 -1.44976
ltoes 16.1108
319
root 17.0136 9.78333 -6.63539 -119.675 -82.8251 91.868
lowerback 38.8216 5.27426 -9.15334
upperback 14.3688 1.73853 9.64134
thorax -3.99769 -0.840422 14.7988
lowerneck -16.7097 7.18229 -11.4127
upperneck 22.8679 12.4981 1.70407
head 9.16498 4.93789 3.9139
rclavicle 2.22639e-014 1.17681e-013
rhumerus 5.82539 34.8261 -56.2114
rradius 76.818
rwrist -4.28244
rhand -16.5029 30.2444
rfingers 7.12502
rthumb 9.71495 0.488488
lclavicle 2.22639e-014 1.17681e-013
lhumerus 5.19847 -20.932 98.3507
lradius 73.5019
lwrist -16.8359
lhand -7.18502 29.1834
lfingers 7.12502
lthumb 18.6929 58.3053
rfemur -62.5342 -14.1969 11.8106
rtibia 72.5851
rfoot 19.7451 2.57485
rtoes 20.8275
lfemur -59.8715 5.71794 -15.7353
ltibia 72.0051
lfoot 20.2039 -0.247612
ltoes 19.018
320
root 16.9965 9.76217 -6.63913 -123.456 -83.0774 96.0371
lowerback 38.4081 5.18665 -8.93703
upperback 14.6287 1.69636 9.79817
thorax -3.58341 -0.915016 14.8774
lowerneck -16.6661 7.43052 -11.0948
upperneck 22.6243 12.8932 1.06468
head 9.12001 5.08809 3.68092
rclavicle 6.67916e-014 7.63333e-014
rhumerus 6.05165 35.3071 -56.2591
rradius 76.9219
rwrist -5.26898
rhand -13.7641 34.7613
rfingers 7.12502
rthumb 12.3566 5.14649
lclavicle 6.67916e-014 7.63333e-014
lhumerus 5.24438 -21.9455 97.1845
lradius 74.4405
lwrist -16.1921
lhand -7.28403 28.0552
lfingers 7.12502
lthumb 18.5976 57.1861
rfemur -63.0748 -13.8805 12.6462
rtibia 72.5575
rfoot 19.9415 2.64297
rtoes 19.3129
lfemur -60.2266 6.34186 -15.3346
ltibia 72.0872
lfoot 20.2866 -0.468272
ltoes 18.1865
321
root 16.9936 9.77142 -6.63858 -123.798 -82.9381 96.4363
lowerback 38.753 5.0716 -8.73032
upperback 14.5708 1.57503 9.61507
thorax -3.69928 -0.957946 14.593
lowerneck -16.5446 7.67756 -10.2755
upperneck 22.7311 13.1716 0.381373
head 9.22836 5.19362 3.36311
rclavicle -2.06736e-014 -5.40694e-014
rhumerus 5.43686 34.159 -57.5162
rradius 77.6387
rwrist 0.253348
rhand -11.9679 38.2565
rfingers 7.12502
rthumb 14.0879 8.75408
lclavicle -2.06736e-014 -5.40694e-014
lhumerus 6.23294 -21.5989 97.3253
lradius 73.7262
lwrist -17.2051
lhand -7.44482 29.4314
lfingers 7.12502
lthumb 18.443 58.5771
rfemur -63.1953 -14.4834 13.0076
rtibia 72.4372
rfoot 20.1889 3.72215
rtoes 17.3108
lfemur -60.2522 6.63781 -15.5996
ltibia 72.0687
lfoot 20.2979 -0.418567
ltoes 18.2452
322
root 16.986 9.77527 -6.64651 -122.618 -82.389 95.4506
lowerback 38.8322 5.16693 -9.14369
upperback 14.5886 1.52278 9.4327
thorax -3.67746 -0.995881 14.6306
lowerneck -16.6438 7.86748 -9.85192
upperneck 22.726 13.4607 -0.120279
head 9.30085 5.29964 3.17217
rclavicle -1.11319e-014 7.63333e-014
rhumerus 4.93972 33.0461 -58.5403
rradius 78.4214
rwrist 6.41123
rhand -13.5648 39.4011
rfingers 7.12502
rthumb 12.5487 9.79792
lclavicle -1.11319e-014 7.63333e-014
lhumerus 7.06202 -21.6226 97.1583
lradius 73.2206
lwrist -18.0152
lhand -7.02665 28.014
lfingers 7.12502
lthumb 18.8452 57.1211
rfemur -63.6445 -14.8249 12.7063
rtibia 72.5289
rfoot 20.2251 4.31168
rtoes 18.1123
lfemur -60.3647 6.90116 -16.2321
ltibia 72.072
lfoot 20.1564 -0.349683
ltoes 19.1159
323
root 16.9776 9.76734 -6.65318 -123.413 -81.9747 96.3049
lowerback 38.9342 5.31952 -9.56767
upperback 14.7382 1.50703 9.41514
thorax -3.54316 -1.05478 14.8499
lowerneck -16.7488 8.10263 -9.94091
upperneck 22.5314 13.8712 -0.356798
head 9.24679 5.46863 3.14707
rclavicle 2.06736e-014 5.08889e-014
rhumerus 4.99533 32.9581 -58.62
rradius 79.4325
rwrist 10.9778
rhand -16.1787 38.1211
rfingers 7.12502
rthumb 10.0277 8.38
lclavicle 2.06736e-014 5.08889e-014
lhumerus 7.61628 -21.833 96.7922
lradius 72.9247
lwrist -18.4689
lhand -7.12278 27.7655
lfingers 7.12502
lthumb 18.7527 56.8816
rfemur -63.9548 -14.6223 12.4837
rtibia 72.6887
rfoot 20.2801 3.89333
rtoes 19.9008
lfemur -60.4324 7.14491 -16.396
ltibia 72.1892
lfoot 20.2219 -0.245334
ltoes 20.0931
324
root 16.9647 9.75927 -6.65661 -123.882 -81.8689 96.6503
lowerback 39.7116 5.24639 -9.32151
upperback 14.5051 1.42925 9.25696
thorax -3.99701 -1.04419 14.5579
lowerneck -16.3969 8.36417 -9.83823
upperneck 22.4434 14.1651 -0.427219
head 9.14925 5.61991 3.11423
rclavicle -6.36111e-015 -7.63333e-014
rhumerus 4.42421 33.2503 -59.1312
rradius 80.4552
rwrist 13.094
rhand -18.1213 36.0332
rfingers 7.12502
rthumb 8.15323 6.21053
lclavicle -6.36111e-015 -7.63333e-014
lhumerus 7.60794 -22.2468 96.5528
lradius 72.9497
lwrist -18.9794
lhand -6.8173 27.9174
lfingers 7.12502
lthumb 19.0465 57.0048
rfemur -63.9235 -14.5117 12.3915
rtibia 72.9198
rfoot 20.1317 3.47617
rtoes 20.8271
lfemur -60.3512 7.23778 -16.3523
ltibia 72.293
lfoot 20.3224 -0.195294
ltoes 20.8134
325
root 16.9524 9.75705 -6.65447 -124.223 -82.0341 97.0687
lowerback 38.7989 5.49446 -10.1608
upperback 15.5056 1.3809 10.2118
thorax -2.70353 -1.3596 16.171
lowerneck -16.799 8.57617 -10.5842
upperneck 21.6756 14.9391 -1.62609
head 8.98767 5.82324 2.90057
rclavicle 6.83819e-014 6.36111e-014
rhumerus 6.48194 33.6952 -57.1385
rradius 81.2997
rwrist 12.2446
rhand -18.2817 34.1025
rfingers 7.12502
rthumb 7.99848 4.27388
lclavicle 6.83819e-014 6.36111e-014
lhumerus 9.40299 -21.5296 96.7694
lradius 72.8279
lwrist -19.7354
lhand -6.58953 27.6697
lfingers 7.12502
lthumb 19.2656 56.7354
rfemur -64.0028 -14.5412 12.5329
rtibia 73.1671
rfoot 19.8747 3.47335
rtoes 20.9213
lfemur -60.4778 7.34316 -16.2095
ltibia 72.2811
lfoot 20.3831 -0.192095
ltoes 21.2779
326
root 16.978 9.78362 -6.64456 -124.077 -81.9074 96.8745
lowerback 39.0204 5.34559 -9.97649
upperback 15.661 1.17227 10.0923
thorax -2.52326 -1.49784 16.0015
lowerneck -16.8174 8.75748 -10.6655
upperneck 21.397 15.2465 -1.86845
head 8.89864 5.95481 2.85371
rclavicle -5.88403e-014 3.18055e-014
rhumerus 6.55276 33.8988 -57.4738
rradius 82.2345
rwrist 9.89662
rhand -17.7834 32.1849
rfingers 7.12502
rthumb 8.47933 2.37518
lclavicle -5.88403e-014 3.18055e-014
lhumerus 10.1657 -21.7643 96.1705
lradius 72.4088
lwrist -20.4134
lhand -6.70037 27.189
lfingers 7.12502
lthumb 19.159 56.2653
rfemur -64.0322 -14.5692 12.1934
rtibia 73.4141
rfoot 19.7271 2.92304
rtoes 23.0328
lfemur -60.1419 7.06716 -16.2751
ltibia 71.9645
lfoot 20.2935 0.261231
ltoes 22.7196
